<svg xmlns="http://www.w3.org/2000/svg" xmlns:xlink="http://www.w3.org/1999/xlink" width="90" zoomAndPan="magnify" viewBox="0 0 67.5 67.499996" height="90" preserveAspectRatio="xMidYMid meet" version="1.0"><defs><clipPath id="6927292274"><path d="M 47 23 L 67 23 L 67 58 L 47 58 Z M 47 23 " clip-rule="nonzero"/></clipPath><clipPath id="ce651c1bf0"><path d="M 68.136719 63.886719 L 5.679688 67 L 2.566406 4.542969 L 65.023438 1.425781 Z M 68.136719 63.886719 " clip-rule="nonzero"/></clipPath><clipPath id="bba3b9ae26"><path d="M 68.136719 63.886719 L 5.679688 67 L 2.566406 4.542969 L 65.023438 1.425781 Z M 68.136719 63.886719 " clip-rule="nonzero"/></clipPath><clipPath id="83bb60c78f"><path d="M 34 2 L 65 2 L 65 27 L 34 27 Z M 34 2 " clip-rule="nonzero"/></clipPath><clipPath id="68e78ad9fa"><path d="M 68.136719 63.886719 L 5.679688 67 L 2.566406 4.542969 L 65.023438 1.425781 Z M 68.136719 63.886719 " clip-rule="nonzero"/></clipPath><clipPath id="26e5bbe5cd"><path d="M 68.136719 63.886719 L 5.679688 67 L 2.566406 4.542969 L 65.023438 1.425781 Z M 68.136719 63.886719 " clip-rule="nonzero"/></clipPath><clipPath id="d2d830b27e"><path d="M 5 3 L 34 3 L 34 29 L 5 29 Z M 5 3 " clip-rule="nonzero"/></clipPath><clipPath id="441086d3b9"><path d="M 68.136719 63.886719 L 5.679688 67 L 2.566406 4.542969 L 65.023438 1.425781 Z M 68.136719 63.886719 " clip-rule="nonzero"/></clipPath><clipPath id="5d36c70a84"><path d="M 68.136719 63.886719 L 5.679688 67 L 2.566406 4.542969 L 65.023438 1.425781 Z M 68.136719 63.886719 " clip-rule="nonzero"/></clipPath><clipPath id="7e92f85eec"><path d="M 4 26 L 25 26 L 25 60 L 4 60 Z M 4 26 " clip-rule="nonzero"/></clipPath><clipPath id="3c4aac28c0"><path d="M 68.136719 63.886719 L 5.679688 67 L 2.566406 4.542969 L 65.023438 1.425781 Z M 68.136719 63.886719 " clip-rule="nonzero"/></clipPath><clipPath id="8068105d1c"><path d="M 68.136719 63.886719 L 5.679688 67 L 2.566406 4.542969 L 65.023438 1.425781 Z M 68.136719 63.886719 " clip-rule="nonzero"/></clipPath><clipPath id="2c8b48b1f3"><path d="M 19 49 L 55 49 L 55 66 L 19 66 Z M 19 49 " clip-rule="nonzero"/></clipPath><clipPath id="fbc414456a"><path d="M 68.136719 63.886719 L 5.679688 67 L 2.566406 4.542969 L 65.023438 1.425781 Z M 68.136719 63.886719 " clip-rule="nonzero"/></clipPath><clipPath id="52307999b9"><path d="M 68.136719 63.886719 L 5.679688 67 L 2.566406 4.542969 L 65.023438 1.425781 Z M 68.136719 63.886719 " clip-rule="nonzero"/></clipPath></defs><g clip-path="url(#6927292274)"><g clip-path="url(#ce651c1bf0)"><g clip-path="url(#bba3b9ae26)"><path fill="#ffffff" d="M 55.703125 57.957031 L 48.808594 49.398438 C 47.714844 48.042969 47.722656 46.113281 48.816406 44.703125 C 51.328125 41.484375 52.597656 37.453125 52.394531 33.359375 C 52.371094 32.878906 52.328125 32.398438 52.265625 31.921875 C 52.027344 30.167969 53.027344 28.5 54.691406 27.867188 L 64.898438 23.980469 C 65.859375 26.765625 66.421875 29.675781 66.570312 32.652344 C 66.820312 37.667969 65.855469 42.710938 63.78125 47.238281 C 61.90625 51.328125 59.121094 55.015625 55.703125 57.957031 " fill-opacity="1" fill-rule="nonzero"/></g></g></g><g clip-path="url(#83bb60c78f)"><g clip-path="url(#68e78ad9fa)"><g clip-path="url(#26e5bbe5cd)"><path fill="#ff3131" d="M 52.835938 26.3125 C 51.511719 26.378906 50.234375 25.742188 49.5 24.652344 C 46.929688 20.84375 42.871094 18.199219 38.367188 17.390625 C 36.667969 17.089844 35.371094 15.585938 35.28125 13.820312 L 34.742188 2.941406 C 41.132812 2.8125 47.296875 4.601562 52.625 8.140625 C 57.839844 11.601562 61.832031 16.441406 64.210938 22.175781 L 54.007812 26.0625 C 53.632812 26.207031 53.234375 26.292969 52.835938 26.3125 " fill-opacity="1" fill-rule="nonzero"/></g></g></g><g clip-path="url(#d2d830b27e)"><g clip-path="url(#441086d3b9)"><g clip-path="url(#5d36c70a84)"><path fill="#69418b" d="M 17.132812 28.089844 C 16.734375 28.113281 16.332031 28.066406 15.941406 27.960938 L 5.402344 25.109375 C 7.199219 19.164062 10.6875 13.953125 15.535156 9.988281 C 20.480469 5.9375 26.4375 3.546875 32.816406 3.035156 L 33.359375 13.914062 C 33.445312 15.679688 32.304688 17.304688 30.644531 17.777344 C 26.242188 19.027344 22.46875 22.0625 20.289062 26.109375 C 19.664062 27.265625 18.457031 28.027344 17.132812 28.089844 " fill-opacity="1" fill-rule="nonzero"/></g></g></g><g clip-path="url(#7e92f85eec)"><g clip-path="url(#3c4aac28c0)"><g clip-path="url(#8068105d1c)"><path fill="#03a9f5" d="M 17.429688 59.863281 C 13.734375 57.277344 10.597656 53.886719 8.324219 50.003906 C 5.808594 45.707031 4.347656 40.785156 4.097656 35.769531 C 3.949219 32.792969 4.21875 29.835938 4.898438 26.96875 L 15.441406 29.824219 C 17.160156 30.289062 18.316406 31.851562 18.257812 33.617188 C 18.242188 34.097656 18.246094 34.582031 18.269531 35.0625 C 18.472656 39.15625 20.140625 43.039062 22.960938 45.996094 C 24.191406 47.289062 24.386719 49.207031 23.4375 50.664062 L 17.429688 59.863281 " fill-opacity="1" fill-rule="nonzero"/></g></g></g><g clip-path="url(#2c8b48b1f3)"><g clip-path="url(#fbc414456a)"><g clip-path="url(#52307999b9)"><path fill="#ff914d" d="M 36.890625 65.449219 C 30.554688 65.761719 24.40625 64.199219 19.042969 60.917969 L 25.011719 51.777344 C 25.679688 50.757812 26.804688 50.113281 28.019531 50.054688 C 28.527344 50.027344 29.03125 50.101562 29.511719 50.277344 C 31.648438 51.050781 33.894531 51.386719 36.183594 51.273438 C 38.476562 51.15625 40.675781 50.601562 42.726562 49.617188 C 43.1875 49.398438 43.679688 49.273438 44.1875 49.246094 C 45.40625 49.1875 46.585938 49.714844 47.351562 50.664062 L 54.199219 59.167969 C 49.191406 62.964844 43.226562 65.132812 36.890625 65.449219 " fill-opacity="1" fill-rule="nonzero"/></g></g></g></svg>