<svg xmlns="http://www.w3.org/2000/svg" xmlns:xlink="http://www.w3.org/1999/xlink" width="90" zoomAndPan="magnify" viewBox="0 0 67.5 67.499996" height="90" preserveAspectRatio="xMidYMid meet" version="1.0"><defs><g/><clipPath id="cbb477f8c3"><path d="M 25 23 L 35 23 L 35 41 L 25 41 Z M 25 23 " clip-rule="nonzero"/></clipPath><clipPath id="bd10187b14"><path d="M 35.527344 43.496094 L 3.964844 45.066406 L 2.390625 13.503906 L 33.957031 11.929688 Z M 35.527344 43.496094 " clip-rule="nonzero"/></clipPath><clipPath id="438d663c29"><path d="M 35.527344 43.496094 L 3.964844 45.066406 L 2.390625 13.503906 L 33.957031 11.929688 Z M 35.527344 43.496094 " clip-rule="nonzero"/></clipPath><clipPath id="4938d744a0"><path d="M 18 12 L 34 12 L 34 25 L 18 25 Z M 18 12 " clip-rule="nonzero"/></clipPath><clipPath id="d0cf1347c9"><path d="M 35.527344 43.496094 L 3.964844 45.066406 L 2.390625 13.503906 L 33.957031 11.929688 Z M 35.527344 43.496094 " clip-rule="nonzero"/></clipPath><clipPath id="802dfc7e7b"><path d="M 35.527344 43.496094 L 3.964844 45.066406 L 2.390625 13.503906 L 33.957031 11.929688 Z M 35.527344 43.496094 " clip-rule="nonzero"/></clipPath><clipPath id="b141a3fbaf"><path d="M 3 12 L 18 12 L 18 26 L 3 26 Z M 3 12 " clip-rule="nonzero"/></clipPath><clipPath id="f9924c4d35"><path d="M 35.527344 43.496094 L 3.964844 45.066406 L 2.390625 13.503906 L 33.957031 11.929688 Z M 35.527344 43.496094 " clip-rule="nonzero"/></clipPath><clipPath id="3530e686a7"><path d="M 35.527344 43.496094 L 3.964844 45.066406 L 2.390625 13.503906 L 33.957031 11.929688 Z M 35.527344 43.496094 " clip-rule="nonzero"/></clipPath><clipPath id="23fc887a3d"><path d="M 3 24 L 14 24 L 14 42 L 3 42 Z M 3 24 " clip-rule="nonzero"/></clipPath><clipPath id="ae0d60519e"><path d="M 35.527344 43.496094 L 3.964844 45.066406 L 2.390625 13.503906 L 33.957031 11.929688 Z M 35.527344 43.496094 " clip-rule="nonzero"/></clipPath><clipPath id="f7009a8525"><path d="M 35.527344 43.496094 L 3.964844 45.066406 L 2.390625 13.503906 L 33.957031 11.929688 Z M 35.527344 43.496094 " clip-rule="nonzero"/></clipPath><clipPath id="c87ae4cb9e"><path d="M 10 36 L 29 36 L 29 45 L 10 45 Z M 10 36 " clip-rule="nonzero"/></clipPath><clipPath id="7bc3ef5701"><path d="M 35.527344 43.496094 L 3.964844 45.066406 L 2.390625 13.503906 L 33.957031 11.929688 Z M 35.527344 43.496094 " clip-rule="nonzero"/></clipPath><clipPath id="6bb6cfc58a"><path d="M 35.527344 43.496094 L 3.964844 45.066406 L 2.390625 13.503906 L 33.957031 11.929688 Z M 35.527344 43.496094 " clip-rule="nonzero"/></clipPath></defs><g clip-path="url(#cbb477f8c3)"><g clip-path="url(#bd10187b14)"><g clip-path="url(#438d663c29)"><path fill="#94c4fc" d="M 29.242188 40.496094 L 25.761719 36.171875 C 25.207031 35.488281 25.210938 34.511719 25.765625 33.800781 C 27.035156 32.171875 27.675781 30.136719 27.574219 28.070312 C 27.5625 27.824219 27.539062 27.582031 27.507812 27.339844 C 27.386719 26.457031 27.890625 25.613281 28.734375 25.292969 L 33.890625 23.328125 C 34.378906 24.734375 34.660156 26.207031 34.738281 27.710938 C 34.863281 30.246094 34.375 32.792969 33.328125 35.082031 C 32.378906 37.148438 30.972656 39.011719 29.242188 40.496094 " fill-opacity="1" fill-rule="nonzero"/></g></g></g><g clip-path="url(#4938d744a0)"><g clip-path="url(#d0cf1347c9)"><g clip-path="url(#802dfc7e7b)"><path fill="#ff3131" d="M 27.796875 24.507812 C 27.128906 24.539062 26.480469 24.21875 26.109375 23.667969 C 24.8125 21.742188 22.757812 20.40625 20.484375 20 C 19.625 19.84375 18.96875 19.085938 18.925781 18.191406 L 18.652344 12.695312 C 21.882812 12.632812 24.996094 13.535156 27.6875 15.324219 C 30.324219 17.074219 32.339844 19.519531 33.542969 22.417969 L 28.386719 24.382812 C 28.199219 24.453125 28 24.496094 27.796875 24.507812 " fill-opacity="1" fill-rule="nonzero"/></g></g></g><g clip-path="url(#b141a3fbaf)"><g clip-path="url(#f9924c4d35)"><g clip-path="url(#3530e686a7)"><path fill="#69418b" d="M 9.753906 25.40625 C 9.550781 25.414062 9.347656 25.394531 9.152344 25.339844 L 3.824219 23.898438 C 4.734375 20.894531 6.496094 18.261719 8.945312 16.257812 C 11.445312 14.210938 14.457031 13 17.679688 12.746094 L 17.953125 18.242188 C 17.996094 19.132812 17.421875 19.957031 16.582031 20.195312 C 14.355469 20.824219 12.449219 22.359375 11.347656 24.402344 C 11.03125 24.988281 10.421875 25.371094 9.753906 25.40625 " fill-opacity="1" fill-rule="nonzero"/></g></g></g><g clip-path="url(#23fc887a3d)"><g clip-path="url(#ae0d60519e)"><g clip-path="url(#f7009a8525)"><path fill="#03a9f5" d="M 9.902344 41.460938 C 8.035156 40.15625 6.449219 38.441406 5.300781 36.476562 C 4.03125 34.308594 3.292969 31.820312 3.167969 29.285156 C 3.089844 27.78125 3.226562 26.289062 3.570312 24.839844 L 8.898438 26.28125 C 9.765625 26.515625 10.351562 27.304688 10.324219 28.199219 C 10.3125 28.441406 10.316406 28.6875 10.328125 28.929688 C 10.433594 30.996094 11.273438 32.957031 12.699219 34.453125 C 13.320312 35.105469 13.421875 36.078125 12.941406 36.8125 L 9.902344 41.460938 " fill-opacity="1" fill-rule="nonzero"/></g></g></g><g clip-path="url(#c87ae4cb9e)"><g clip-path="url(#7bc3ef5701)"><g clip-path="url(#6bb6cfc58a)"><path fill="#ff914d" d="M 19.738281 44.285156 C 16.535156 44.441406 13.429688 43.652344 10.71875 41.996094 L 13.738281 37.375 C 14.074219 36.859375 14.640625 36.535156 15.253906 36.503906 C 15.511719 36.492188 15.765625 36.527344 16.007812 36.617188 C 17.089844 37.007812 18.222656 37.179688 19.382812 37.121094 C 20.539062 37.0625 21.652344 36.78125 22.6875 36.285156 C 22.917969 36.171875 23.167969 36.109375 23.425781 36.097656 C 24.042969 36.066406 24.636719 36.332031 25.023438 36.8125 L 28.484375 41.109375 C 25.953125 43.027344 22.941406 44.125 19.738281 44.285156 " fill-opacity="1" fill-rule="nonzero"/></g></g></g><g fill="#000000" fill-opacity="1"><g transform="translate(13.082553, 30.498709)"><g><path d="M 3.5 -2.046875 L 3.75 -1.9375 C 3.4375 -1.394531 3.113281 -0.9375 2.78125 -0.5625 C 2.457031 -0.195312 2.148438 0.0664062 1.859375 0.234375 C 1.578125 0.398438 1.304688 0.460938 1.046875 0.421875 C 0.796875 0.378906 0.585938 0.238281 0.421875 0 C 0.253906 -0.226562 0.132812 -0.582031 0.0625 -1.0625 C -0.0078125 -1.550781 -0.015625 -2.140625 0.046875 -2.828125 C 0.0976562 -3.503906 0.203125 -4.085938 0.359375 -4.578125 C 0.515625 -5.066406 0.6875 -5.429688 0.875 -5.671875 C 1.070312 -5.910156 1.28125 -6.085938 1.5 -6.203125 C 1.71875 -6.316406 1.910156 -6.367188 2.078125 -6.359375 C 2.242188 -6.359375 2.382812 -6.320312 2.5 -6.25 C 2.988281 -5.945312 3.09375 -5.132812 2.8125 -3.8125 L 2.5625 -4 C 2.570312 -4.03125 2.578125 -4.070312 2.578125 -4.125 C 2.585938 -4.175781 2.59375 -4.265625 2.59375 -4.390625 C 2.601562 -4.523438 2.601562 -4.644531 2.59375 -4.75 C 2.582031 -4.851562 2.550781 -4.945312 2.5 -5.03125 C 2.457031 -5.125 2.394531 -5.171875 2.3125 -5.171875 C 2.269531 -5.179688 2.226562 -5.179688 2.1875 -5.171875 C 2.15625 -5.171875 2.097656 -5.132812 2.015625 -5.0625 C 1.929688 -4.988281 1.859375 -4.878906 1.796875 -4.734375 C 1.734375 -4.585938 1.664062 -4.359375 1.59375 -4.046875 C 1.53125 -3.742188 1.484375 -3.375 1.453125 -2.9375 C 1.390625 -2.25 1.390625 -1.722656 1.453125 -1.359375 C 1.515625 -1.003906 1.609375 -0.765625 1.734375 -0.640625 C 1.859375 -0.515625 2.015625 -0.503906 2.203125 -0.609375 C 2.398438 -0.722656 2.609375 -0.898438 2.828125 -1.140625 C 3.046875 -1.378906 3.269531 -1.679688 3.5 -2.046875 Z M 3.5 -2.046875 "/></g></g></g><g fill="#000000" fill-opacity="1"><g transform="translate(16.38304, 30.498709)"><g><path d="M 4.234375 -2.90625 L 4.34375 -2.734375 C 4.3125 -2.703125 4.269531 -2.671875 4.21875 -2.640625 C 4.207031 -2.640625 4.191406 -2.632812 4.171875 -2.625 C 4.160156 -2.613281 4.15625 -2.601562 4.15625 -2.59375 L 4.078125 -2.546875 C 4.066406 -2.546875 4.050781 -2.535156 4.03125 -2.515625 C 4.007812 -2.503906 3.992188 -2.492188 3.984375 -2.484375 C 3.972656 -2.484375 3.957031 -2.472656 3.9375 -2.453125 C 3.914062 -2.441406 3.898438 -2.4375 3.890625 -2.4375 C 3.828125 -2.40625 3.789062 -2.382812 3.78125 -2.375 C 3.769531 -2.363281 3.75 -2.347656 3.71875 -2.328125 C 3.6875 -2.316406 3.664062 -2.304688 3.65625 -2.296875 C 3.65625 -2.296875 3.644531 -2.289062 3.625 -2.28125 C 3.613281 -2.269531 3.601562 -2.265625 3.59375 -2.265625 C 3.570312 -2.253906 3.5625 -2.25 3.5625 -2.25 C 3.5625 -2.25 3.554688 -2.242188 3.546875 -2.234375 C 3.546875 -2.234375 3.539062 -2.234375 3.53125 -2.234375 C 3.507812 -2.234375 3.488281 -2.222656 3.46875 -2.203125 C 3.445312 -2.191406 3.421875 -2.179688 3.390625 -2.171875 C 3.328125 -2.140625 3.226562 -2.097656 3.09375 -2.046875 C 3.007812 -2.003906 2.90625 -1.96875 2.78125 -1.9375 C 2.769531 -1.925781 2.75 -1.914062 2.71875 -1.90625 C 2.6875 -1.894531 2.664062 -1.890625 2.65625 -1.890625 C 2.632812 -1.796875 2.609375 -1.695312 2.578125 -1.59375 C 2.429688 -1.15625 2.1875 -0.816406 1.84375 -0.578125 C 1.507812 -0.347656 1.171875 -0.285156 0.828125 -0.390625 C 0.484375 -0.492188 0.238281 -0.738281 0.09375 -1.125 C -0.0390625 -1.507812 -0.0351562 -1.925781 0.109375 -2.375 C 0.242188 -2.820312 0.476562 -3.160156 0.8125 -3.390625 C 1.15625 -3.628906 1.5 -3.691406 1.84375 -3.578125 C 2.070312 -3.503906 2.257812 -3.351562 2.40625 -3.125 C 2.5625 -2.90625 2.648438 -2.648438 2.671875 -2.359375 L 2.6875 -2.359375 C 2.832031 -2.390625 2.929688 -2.410156 2.984375 -2.421875 C 3.023438 -2.429688 3.117188 -2.457031 3.265625 -2.5 C 3.296875 -2.507812 3.316406 -2.519531 3.328125 -2.53125 C 3.359375 -2.539062 3.378906 -2.546875 3.390625 -2.546875 C 3.421875 -2.554688 3.4375 -2.5625 3.4375 -2.5625 C 3.445312 -2.5625 3.457031 -2.5625 3.46875 -2.5625 C 3.46875 -2.570312 3.472656 -2.578125 3.484375 -2.578125 C 3.503906 -2.585938 3.515625 -2.59375 3.515625 -2.59375 L 3.65625 -2.640625 C 3.6875 -2.648438 3.722656 -2.664062 3.765625 -2.6875 C 3.804688 -2.707031 3.835938 -2.722656 3.859375 -2.734375 C 3.898438 -2.753906 3.929688 -2.765625 3.953125 -2.765625 C 3.960938 -2.773438 3.972656 -2.78125 3.984375 -2.78125 C 4.003906 -2.789062 4.019531 -2.800781 4.03125 -2.8125 L 4.109375 -2.84375 Z M 2.09375 -2.734375 C 1.988281 -2.765625 1.867188 -2.726562 1.734375 -2.625 C 1.742188 -2.601562 1.765625 -2.578125 1.796875 -2.546875 C 1.847656 -2.492188 1.898438 -2.457031 1.953125 -2.4375 C 1.972656 -2.414062 2.003906 -2.398438 2.046875 -2.390625 C 2.109375 -2.378906 2.144531 -2.375 2.15625 -2.375 C 2.21875 -2.351562 2.285156 -2.34375 2.359375 -2.34375 C 2.316406 -2.5625 2.226562 -2.691406 2.09375 -2.734375 Z M 1.46875 -0.765625 C 1.613281 -0.710938 1.765625 -0.765625 1.921875 -0.921875 C 2.078125 -1.085938 2.195312 -1.304688 2.28125 -1.578125 C 2.3125 -1.648438 2.335938 -1.742188 2.359375 -1.859375 C 2.242188 -1.847656 2.15625 -1.84375 2.09375 -1.84375 C 2.082031 -1.84375 2.0625 -1.84375 2.03125 -1.84375 C 2.007812 -1.851562 1.988281 -1.859375 1.96875 -1.859375 C 1.945312 -1.859375 1.925781 -1.863281 1.90625 -1.875 C 1.875 -1.875 1.816406 -1.882812 1.734375 -1.90625 C 1.640625 -1.9375 1.539062 -1.988281 1.4375 -2.0625 C 1.40625 -2.082031 1.382812 -2.101562 1.375 -2.125 C 1.363281 -2.09375 1.332031 -2.019531 1.28125 -1.90625 C 1.195312 -1.632812 1.171875 -1.382812 1.203125 -1.15625 C 1.242188 -0.9375 1.332031 -0.804688 1.46875 -0.765625 Z M 1.46875 -0.765625 "/></g></g></g><g fill="#000000" fill-opacity="1"><g transform="translate(19.683526, 30.498709)"><g><path d="M 3.53125 -2.671875 L 3.703125 -2.59375 C 3.453125 -2.101562 3.28125 -1.769531 3.1875 -1.59375 C 3.101562 -1.4375 3.015625 -1.300781 2.921875 -1.1875 C 2.835938 -1.101562 2.769531 -1.039062 2.71875 -1 C 2.71875 -0.988281 2.707031 -0.976562 2.6875 -0.96875 C 2.675781 -0.96875 2.664062 -0.960938 2.65625 -0.953125 C 2.65625 -0.953125 2.644531 -0.945312 2.625 -0.9375 C 2.613281 -0.9375 2.601562 -0.929688 2.59375 -0.921875 C 2.59375 -0.921875 2.582031 -0.914062 2.5625 -0.90625 L 2.53125 -0.90625 L 2.515625 -0.890625 L 2.4375 -0.890625 C 2.394531 -0.890625 2.363281 -0.90625 2.34375 -0.9375 C 2.300781 -0.945312 2.269531 -0.972656 2.25 -1.015625 C 2.226562 -1.035156 2.207031 -1.097656 2.1875 -1.203125 C 2.175781 -1.285156 2.171875 -1.394531 2.171875 -1.53125 C 2.171875 -1.675781 2.179688 -1.882812 2.203125 -2.15625 C 2.210938 -2.289062 2.21875 -2.390625 2.21875 -2.453125 C 2.21875 -2.578125 2.21875 -2.660156 2.21875 -2.703125 C 2.207031 -2.722656 2.191406 -2.738281 2.171875 -2.75 C 2.160156 -2.757812 2.140625 -2.753906 2.109375 -2.734375 L 2.0625 -2.671875 C 2.019531 -2.617188 1.976562 -2.550781 1.9375 -2.46875 C 1.90625 -2.414062 1.867188 -2.34375 1.828125 -2.25 C 1.742188 -2.019531 1.691406 -1.867188 1.671875 -1.796875 C 1.597656 -1.585938 1.53125 -1.363281 1.46875 -1.125 L 1.390625 -0.84375 C 1.273438 -0.394531 1.03125 -0.164062 0.65625 -0.15625 C 0.414062 -0.15625 0.242188 -0.242188 0.140625 -0.421875 C 0.0351562 -0.609375 -0.0078125 -0.84375 0 -1.125 C 0.0195312 -1.414062 0.046875 -1.726562 0.078125 -2.0625 C 0.117188 -2.394531 0.160156 -2.703125 0.203125 -2.984375 C 0.242188 -3.273438 0.242188 -3.519531 0.203125 -3.71875 C 0.222656 -3.71875 0.25 -3.722656 0.28125 -3.734375 C 0.3125 -3.742188 0.367188 -3.75 0.453125 -3.75 C 0.546875 -3.757812 0.632812 -3.753906 0.71875 -3.734375 C 0.800781 -3.722656 0.890625 -3.691406 0.984375 -3.640625 C 1.085938 -3.585938 1.171875 -3.515625 1.234375 -3.421875 C 1.304688 -3.328125 1.359375 -3.191406 1.390625 -3.015625 C 1.429688 -2.847656 1.445312 -2.65625 1.4375 -2.4375 L 1.4375 -2.390625 C 1.726562 -2.898438 1.984375 -3.148438 2.203125 -3.140625 C 2.367188 -3.140625 2.460938 -3.015625 2.484375 -2.765625 C 2.503906 -2.515625 2.492188 -2.285156 2.453125 -2.078125 C 2.453125 -2.035156 2.441406 -1.972656 2.421875 -1.890625 L 2.421875 -1.84375 C 2.410156 -1.78125 2.398438 -1.675781 2.390625 -1.53125 C 2.390625 -1.394531 2.394531 -1.300781 2.40625 -1.25 C 2.414062 -1.207031 2.421875 -1.179688 2.421875 -1.171875 L 2.4375 -1.15625 L 2.515625 -1.15625 C 2.515625 -1.164062 2.519531 -1.171875 2.53125 -1.171875 C 2.539062 -1.171875 2.546875 -1.171875 2.546875 -1.171875 C 2.554688 -1.179688 2.566406 -1.1875 2.578125 -1.1875 L 2.59375 -1.203125 C 2.601562 -1.210938 2.609375 -1.21875 2.609375 -1.21875 C 2.628906 -1.226562 2.679688 -1.273438 2.765625 -1.359375 C 2.859375 -1.472656 2.941406 -1.597656 3.015625 -1.734375 Z M 3.53125 -2.671875 "/></g></g></g><g fill="#000000" fill-opacity="1"><g transform="translate(22.49317, 30.498709)"><g><path d="M 3.53125 -2.671875 L 3.703125 -2.59375 C 3.453125 -2.101562 3.28125 -1.769531 3.1875 -1.59375 C 3.101562 -1.4375 3.015625 -1.300781 2.921875 -1.1875 C 2.835938 -1.101562 2.769531 -1.039062 2.71875 -1 C 2.71875 -0.988281 2.707031 -0.976562 2.6875 -0.96875 C 2.675781 -0.96875 2.664062 -0.960938 2.65625 -0.953125 C 2.65625 -0.953125 2.644531 -0.945312 2.625 -0.9375 C 2.613281 -0.9375 2.601562 -0.929688 2.59375 -0.921875 C 2.59375 -0.921875 2.582031 -0.914062 2.5625 -0.90625 L 2.53125 -0.90625 L 2.515625 -0.890625 L 2.4375 -0.890625 C 2.394531 -0.890625 2.363281 -0.90625 2.34375 -0.9375 C 2.300781 -0.945312 2.269531 -0.972656 2.25 -1.015625 C 2.226562 -1.035156 2.207031 -1.097656 2.1875 -1.203125 C 2.175781 -1.285156 2.171875 -1.394531 2.171875 -1.53125 C 2.171875 -1.675781 2.179688 -1.882812 2.203125 -2.15625 C 2.210938 -2.289062 2.21875 -2.390625 2.21875 -2.453125 C 2.21875 -2.578125 2.21875 -2.660156 2.21875 -2.703125 C 2.207031 -2.722656 2.191406 -2.738281 2.171875 -2.75 C 2.160156 -2.757812 2.140625 -2.753906 2.109375 -2.734375 L 2.0625 -2.671875 C 2.019531 -2.617188 1.976562 -2.550781 1.9375 -2.46875 C 1.90625 -2.414062 1.867188 -2.34375 1.828125 -2.25 C 1.742188 -2.019531 1.691406 -1.867188 1.671875 -1.796875 C 1.597656 -1.585938 1.53125 -1.363281 1.46875 -1.125 L 1.390625 -0.84375 C 1.273438 -0.394531 1.03125 -0.164062 0.65625 -0.15625 C 0.414062 -0.15625 0.242188 -0.242188 0.140625 -0.421875 C 0.0351562 -0.609375 -0.0078125 -0.84375 0 -1.125 C 0.0195312 -1.414062 0.046875 -1.726562 0.078125 -2.0625 C 0.117188 -2.394531 0.160156 -2.703125 0.203125 -2.984375 C 0.242188 -3.273438 0.242188 -3.519531 0.203125 -3.71875 C 0.222656 -3.71875 0.25 -3.722656 0.28125 -3.734375 C 0.3125 -3.742188 0.367188 -3.75 0.453125 -3.75 C 0.546875 -3.757812 0.632812 -3.753906 0.71875 -3.734375 C 0.800781 -3.722656 0.890625 -3.691406 0.984375 -3.640625 C 1.085938 -3.585938 1.171875 -3.515625 1.234375 -3.421875 C 1.304688 -3.328125 1.359375 -3.191406 1.390625 -3.015625 C 1.429688 -2.847656 1.445312 -2.65625 1.4375 -2.4375 L 1.4375 -2.390625 C 1.726562 -2.898438 1.984375 -3.148438 2.203125 -3.140625 C 2.367188 -3.140625 2.460938 -3.015625 2.484375 -2.765625 C 2.503906 -2.515625 2.492188 -2.285156 2.453125 -2.078125 C 2.453125 -2.035156 2.441406 -1.972656 2.421875 -1.890625 L 2.421875 -1.84375 C 2.410156 -1.78125 2.398438 -1.675781 2.390625 -1.53125 C 2.390625 -1.394531 2.394531 -1.300781 2.40625 -1.25 C 2.414062 -1.207031 2.421875 -1.179688 2.421875 -1.171875 L 2.4375 -1.15625 L 2.515625 -1.15625 C 2.515625 -1.164062 2.519531 -1.171875 2.53125 -1.171875 C 2.539062 -1.171875 2.546875 -1.171875 2.546875 -1.171875 C 2.554688 -1.179688 2.566406 -1.1875 2.578125 -1.1875 L 2.59375 -1.203125 C 2.601562 -1.210938 2.609375 -1.21875 2.609375 -1.21875 C 2.628906 -1.226562 2.679688 -1.273438 2.765625 -1.359375 C 2.859375 -1.472656 2.941406 -1.597656 3.015625 -1.734375 Z M 3.53125 -2.671875 "/></g></g></g><g fill="#000000" fill-opacity="1"><g transform="translate(25.302815, 30.498709)"><g><path d="M 3.71875 -2.578125 L 3.890625 -2.453125 C 3.421875 -1.578125 2.832031 -0.90625 2.125 -0.4375 C 1.519531 -0.0390625 1.003906 0.0859375 0.578125 -0.046875 C 0.148438 -0.179688 -0.0351562 -0.585938 0.015625 -1.265625 C 0.015625 -1.359375 0.0234375 -1.453125 0.046875 -1.546875 C 0.0976562 -1.835938 0.1875 -2.085938 0.3125 -2.296875 C 0.445312 -2.503906 0.59375 -2.660156 0.75 -2.765625 C 0.914062 -2.867188 1.085938 -2.941406 1.265625 -2.984375 C 1.453125 -3.035156 1.613281 -3.0625 1.75 -3.0625 C 1.894531 -3.0625 2.019531 -3.046875 2.125 -3.015625 C 2.238281 -2.972656 2.335938 -2.898438 2.421875 -2.796875 C 2.503906 -2.703125 2.550781 -2.578125 2.5625 -2.421875 C 2.570312 -2.265625 2.515625 -2.085938 2.390625 -1.890625 C 2.191406 -1.566406 1.820312 -1.414062 1.28125 -1.4375 C 1.21875 -0.875 1.34375 -0.613281 1.65625 -0.65625 C 1.988281 -0.707031 2.453125 -1.054688 3.046875 -1.703125 C 3.390625 -2.085938 3.613281 -2.378906 3.71875 -2.578125 Z M 1.96875 -2.546875 C 1.925781 -2.546875 1.890625 -2.546875 1.859375 -2.546875 C 1.835938 -2.546875 1.796875 -2.53125 1.734375 -2.5 C 1.679688 -2.46875 1.628906 -2.421875 1.578125 -2.359375 C 1.535156 -2.304688 1.488281 -2.21875 1.4375 -2.09375 C 1.382812 -1.96875 1.347656 -1.816406 1.328125 -1.640625 C 1.742188 -1.609375 2.023438 -1.742188 2.171875 -2.046875 C 2.191406 -2.097656 2.207031 -2.160156 2.21875 -2.234375 C 2.226562 -2.304688 2.210938 -2.375 2.171875 -2.4375 C 2.140625 -2.507812 2.070312 -2.546875 1.96875 -2.546875 Z M 1.96875 -2.546875 "/></g></g></g><g fill="#000000" fill-opacity="1"><g transform="translate(28.586375, 30.498709)"><g><path d="M 2.109375 -3.0625 C 2.515625 -2.9375 2.601562 -2.585938 2.375 -2.015625 C 2.332031 -2.015625 2.289062 -2.019531 2.25 -2.03125 C 2.21875 -2.050781 2.195312 -2.066406 2.1875 -2.078125 L 2.15625 -2.09375 C 2.164062 -2.113281 2.171875 -2.132812 2.171875 -2.15625 C 2.179688 -2.175781 2.1875 -2.210938 2.1875 -2.265625 C 2.195312 -2.328125 2.195312 -2.378906 2.1875 -2.421875 C 2.175781 -2.460938 2.148438 -2.5 2.109375 -2.53125 C 2.078125 -2.570312 2.023438 -2.59375 1.953125 -2.59375 C 1.910156 -2.601562 1.878906 -2.601562 1.859375 -2.59375 C 1.835938 -2.59375 1.796875 -2.578125 1.734375 -2.546875 C 1.671875 -2.515625 1.613281 -2.46875 1.5625 -2.40625 C 1.519531 -2.351562 1.472656 -2.257812 1.421875 -2.125 C 1.367188 -1.988281 1.328125 -1.828125 1.296875 -1.640625 C 1.203125 -1.046875 1.320312 -0.765625 1.65625 -0.796875 C 2 -0.835938 2.472656 -1.160156 3.078125 -1.765625 C 3.453125 -2.140625 3.691406 -2.429688 3.796875 -2.640625 L 3.96875 -2.5 C 3.5 -1.625 2.898438 -0.972656 2.171875 -0.546875 C 1.566406 -0.191406 1.050781 -0.0820312 0.625 -0.21875 C 0.1875 -0.363281 -0.0195312 -0.71875 0 -1.28125 C 0.0078125 -1.382812 0.0195312 -1.488281 0.03125 -1.59375 C 0.0703125 -1.84375 0.140625 -2.0625 0.234375 -2.25 C 0.335938 -2.4375 0.453125 -2.582031 0.578125 -2.6875 C 0.710938 -2.789062 0.851562 -2.878906 1 -2.953125 C 1.144531 -3.023438 1.289062 -3.066406 1.4375 -3.078125 C 1.582031 -3.097656 1.707031 -3.101562 1.8125 -3.09375 C 1.925781 -3.09375 2.023438 -3.082031 2.109375 -3.0625 Z M 2.109375 -3.0625 "/></g></g></g><g fill="#000000" fill-opacity="1"><g transform="translate(31.785307, 30.498709)"><g><path d="M 4.25 -2.734375 L 4.421875 -2.59375 C 4.410156 -2.550781 4.390625 -2.492188 4.359375 -2.421875 C 4.328125 -2.347656 4.257812 -2.203125 4.15625 -1.984375 C 4.0625 -1.773438 3.960938 -1.578125 3.859375 -1.390625 C 3.753906 -1.203125 3.617188 -0.992188 3.453125 -0.765625 C 3.285156 -0.535156 3.113281 -0.335938 2.9375 -0.171875 C 2.769531 -0.015625 2.570312 0.109375 2.34375 0.203125 C 2.113281 0.304688 1.890625 0.351562 1.671875 0.34375 C 1.535156 0.332031 1.414062 0.257812 1.3125 0.125 C 1.21875 0 1.144531 -0.1875 1.09375 -0.4375 C 1.050781 -0.6875 1.015625 -0.945312 0.984375 -1.21875 C 0.960938 -1.488281 0.953125 -1.816406 0.953125 -2.203125 C 0.960938 -2.585938 0.972656 -2.929688 0.984375 -3.234375 C 0.992188 -3.535156 1.015625 -3.882812 1.046875 -4.28125 C 1.003906 -4.28125 0.953125 -4.28125 0.890625 -4.28125 C 0.828125 -4.28125 0.785156 -4.273438 0.765625 -4.265625 C 0.640625 -4.265625 0.546875 -4.265625 0.484375 -4.265625 L -0.0625 -4.265625 L -0.078125 -4.515625 C -0.0664062 -4.515625 -0.0546875 -4.519531 -0.046875 -4.53125 C -0.0351562 -4.53125 0 -4.535156 0.0625 -4.546875 C 0.09375 -4.554688 0.128906 -4.5625 0.171875 -4.5625 C 0.210938 -4.570312 0.257812 -4.578125 0.3125 -4.578125 C 0.375 -4.585938 0.425781 -4.597656 0.46875 -4.609375 C 0.476562 -4.609375 0.515625 -4.609375 0.578125 -4.609375 C 0.640625 -4.617188 0.691406 -4.628906 0.734375 -4.640625 C 0.796875 -4.648438 0.894531 -4.660156 1.03125 -4.671875 C 1.039062 -4.679688 1.050781 -4.6875 1.0625 -4.6875 C 1.132812 -5.800781 1.144531 -6.441406 1.09375 -6.609375 C 1.125 -6.617188 1.15625 -6.625 1.1875 -6.625 C 1.21875 -6.632812 1.28125 -6.640625 1.375 -6.640625 C 1.476562 -6.640625 1.570312 -6.632812 1.65625 -6.625 C 1.75 -6.613281 1.847656 -6.585938 1.953125 -6.546875 C 2.054688 -6.503906 2.144531 -6.441406 2.21875 -6.359375 C 2.289062 -6.285156 2.347656 -6.175781 2.390625 -6.03125 C 2.429688 -5.894531 2.445312 -5.726562 2.4375 -5.53125 C 2.425781 -5.4375 2.410156 -5.191406 2.390625 -4.796875 C 2.410156 -4.796875 2.445312 -4.796875 2.5 -4.796875 C 2.5625 -4.796875 2.601562 -4.796875 2.625 -4.796875 C 2.6875 -4.804688 2.773438 -4.8125 2.890625 -4.8125 C 2.921875 -4.8125 2.957031 -4.8125 3 -4.8125 C 3.050781 -4.8125 3.085938 -4.8125 3.109375 -4.8125 L 3.453125 -4.8125 L 3.46875 -4.5625 C 3.425781 -4.550781 3.375 -4.535156 3.3125 -4.515625 C 3.269531 -4.503906 3.210938 -4.5 3.140625 -4.5 C 3.117188 -4.5 3.082031 -4.492188 3.03125 -4.484375 C 2.988281 -4.472656 2.953125 -4.46875 2.921875 -4.46875 C 2.890625 -4.46875 2.84375 -4.460938 2.78125 -4.453125 C 2.726562 -4.441406 2.6875 -4.429688 2.65625 -4.421875 C 2.625 -4.421875 2.578125 -4.414062 2.515625 -4.40625 C 2.453125 -4.40625 2.40625 -4.398438 2.375 -4.390625 C 2.351562 -3.941406 2.335938 -3.453125 2.328125 -2.921875 C 2.328125 -1.890625 2.332031 -1.3125 2.34375 -1.1875 C 2.382812 -0.71875 2.484375 -0.488281 2.640625 -0.5 C 2.710938 -0.5 2.796875 -0.539062 2.890625 -0.625 C 3.054688 -0.757812 3.25 -1 3.46875 -1.34375 C 3.695312 -1.695312 3.882812 -2.015625 4.03125 -2.296875 Z M 4.25 -2.734375 "/></g></g></g><g fill="#000000" fill-opacity="1"><g transform="translate(35.678189, 30.498709)"><g><path d="M 3.09375 -0.671875 C 3.125 -0.367188 3.050781 -0.117188 2.875 0.078125 C 2.707031 0.273438 2.484375 0.40625 2.203125 0.46875 C 1.929688 0.539062 1.65625 0.585938 1.375 0.609375 C 1.09375 0.640625 0.828125 0.660156 0.578125 0.671875 C 0.328125 0.679688 0.175781 0.703125 0.125 0.734375 C 0.113281 0.691406 0.0976562 0.640625 0.078125 0.578125 C 0.0546875 0.515625 0.0351562 0.398438 0.015625 0.234375 C -0.00390625 0.078125 -0.00390625 -0.0625 0.015625 -0.1875 C 0.046875 -0.3125 0.113281 -0.425781 0.21875 -0.53125 C 0.332031 -0.632812 0.5 -0.695312 0.71875 -0.71875 C 1.664062 -0.757812 2.203125 -0.847656 2.328125 -0.984375 C 2.378906 -1.046875 2.378906 -1.128906 2.328125 -1.234375 C 2.242188 -1.390625 2.109375 -1.546875 1.921875 -1.703125 C 1.734375 -1.867188 1.546875 -2.019531 1.359375 -2.15625 C 1.171875 -2.300781 0.976562 -2.457031 0.78125 -2.625 C 0.59375 -2.789062 0.445312 -2.972656 0.34375 -3.171875 C 0.238281 -3.378906 0.179688 -3.609375 0.171875 -3.859375 C 0.160156 -4.109375 0.242188 -4.40625 0.421875 -4.75 C 0.597656 -5.09375 0.867188 -5.46875 1.234375 -5.875 C 1.390625 -6.03125 1.5 -6.132812 1.5625 -6.1875 C 1.90625 -6.457031 2.210938 -6.546875 2.484375 -6.453125 C 2.984375 -6.296875 3.15625 -5.898438 3 -5.265625 C 2.9375 -5.003906 2.878906 -4.695312 2.828125 -4.34375 C 2.785156 -3.988281 2.765625 -3.734375 2.765625 -3.578125 L 2.40625 -3.578125 C 2.457031 -4.171875 2.503906 -4.65625 2.546875 -5.03125 C 2.554688 -5.101562 2.53125 -5.125 2.46875 -5.09375 C 2.414062 -5.070312 2.300781 -4.972656 2.125 -4.796875 C 1.832031 -4.503906 1.625 -4.226562 1.5 -3.96875 C 1.375 -3.707031 1.328125 -3.472656 1.359375 -3.265625 C 1.398438 -3.066406 1.472656 -2.878906 1.578125 -2.703125 C 1.691406 -2.523438 1.832031 -2.351562 2 -2.1875 C 2.164062 -2.019531 2.328125 -1.859375 2.484375 -1.703125 C 2.640625 -1.546875 2.773438 -1.378906 2.890625 -1.203125 C 3.015625 -1.023438 3.082031 -0.847656 3.09375 -0.671875 Z M 3.09375 -0.671875 "/></g></g></g><g fill="#000000" fill-opacity="1"><g transform="translate(38.953287, 30.498709)"><g><path d="M 4.25 -2.734375 L 4.421875 -2.59375 C 4.410156 -2.550781 4.390625 -2.492188 4.359375 -2.421875 C 4.328125 -2.347656 4.257812 -2.203125 4.15625 -1.984375 C 4.0625 -1.773438 3.960938 -1.578125 3.859375 -1.390625 C 3.753906 -1.203125 3.617188 -0.992188 3.453125 -0.765625 C 3.285156 -0.535156 3.113281 -0.335938 2.9375 -0.171875 C 2.769531 -0.015625 2.570312 0.109375 2.34375 0.203125 C 2.113281 0.304688 1.890625 0.351562 1.671875 0.34375 C 1.535156 0.332031 1.414062 0.257812 1.3125 0.125 C 1.21875 0 1.144531 -0.1875 1.09375 -0.4375 C 1.050781 -0.6875 1.015625 -0.945312 0.984375 -1.21875 C 0.960938 -1.488281 0.953125 -1.816406 0.953125 -2.203125 C 0.960938 -2.585938 0.972656 -2.929688 0.984375 -3.234375 C 0.992188 -3.535156 1.015625 -3.882812 1.046875 -4.28125 C 1.003906 -4.28125 0.953125 -4.28125 0.890625 -4.28125 C 0.828125 -4.28125 0.785156 -4.273438 0.765625 -4.265625 C 0.640625 -4.265625 0.546875 -4.265625 0.484375 -4.265625 L -0.0625 -4.265625 L -0.078125 -4.515625 C -0.0664062 -4.515625 -0.0546875 -4.519531 -0.046875 -4.53125 C -0.0351562 -4.53125 0 -4.535156 0.0625 -4.546875 C 0.09375 -4.554688 0.128906 -4.5625 0.171875 -4.5625 C 0.210938 -4.570312 0.257812 -4.578125 0.3125 -4.578125 C 0.375 -4.585938 0.425781 -4.597656 0.46875 -4.609375 C 0.476562 -4.609375 0.515625 -4.609375 0.578125 -4.609375 C 0.640625 -4.617188 0.691406 -4.628906 0.734375 -4.640625 C 0.796875 -4.648438 0.894531 -4.660156 1.03125 -4.671875 C 1.039062 -4.679688 1.050781 -4.6875 1.0625 -4.6875 C 1.132812 -5.800781 1.144531 -6.441406 1.09375 -6.609375 C 1.125 -6.617188 1.15625 -6.625 1.1875 -6.625 C 1.21875 -6.632812 1.28125 -6.640625 1.375 -6.640625 C 1.476562 -6.640625 1.570312 -6.632812 1.65625 -6.625 C 1.75 -6.613281 1.847656 -6.585938 1.953125 -6.546875 C 2.054688 -6.503906 2.144531 -6.441406 2.21875 -6.359375 C 2.289062 -6.285156 2.347656 -6.175781 2.390625 -6.03125 C 2.429688 -5.894531 2.445312 -5.726562 2.4375 -5.53125 C 2.425781 -5.4375 2.410156 -5.191406 2.390625 -4.796875 C 2.410156 -4.796875 2.445312 -4.796875 2.5 -4.796875 C 2.5625 -4.796875 2.601562 -4.796875 2.625 -4.796875 C 2.6875 -4.804688 2.773438 -4.8125 2.890625 -4.8125 C 2.921875 -4.8125 2.957031 -4.8125 3 -4.8125 C 3.050781 -4.8125 3.085938 -4.8125 3.109375 -4.8125 L 3.453125 -4.8125 L 3.46875 -4.5625 C 3.425781 -4.550781 3.375 -4.535156 3.3125 -4.515625 C 3.269531 -4.503906 3.210938 -4.5 3.140625 -4.5 C 3.117188 -4.5 3.082031 -4.492188 3.03125 -4.484375 C 2.988281 -4.472656 2.953125 -4.46875 2.921875 -4.46875 C 2.890625 -4.46875 2.84375 -4.460938 2.78125 -4.453125 C 2.726562 -4.441406 2.6875 -4.429688 2.65625 -4.421875 C 2.625 -4.421875 2.578125 -4.414062 2.515625 -4.40625 C 2.453125 -4.40625 2.40625 -4.398438 2.375 -4.390625 C 2.351562 -3.941406 2.335938 -3.453125 2.328125 -2.921875 C 2.328125 -1.890625 2.332031 -1.3125 2.34375 -1.1875 C 2.382812 -0.71875 2.484375 -0.488281 2.640625 -0.5 C 2.710938 -0.5 2.796875 -0.539062 2.890625 -0.625 C 3.054688 -0.757812 3.25 -1 3.46875 -1.34375 C 3.695312 -1.695312 3.882812 -2.015625 4.03125 -2.296875 Z M 4.25 -2.734375 "/></g></g></g><g fill="#000000" fill-opacity="1"><g transform="translate(42.846168, 30.498709)"><g><path d="M 4.5625 -2.78125 C 4.5625 -2.78125 4.625 -2.785156 4.75 -2.796875 C 4.832031 -2.785156 4.863281 -2.742188 4.84375 -2.671875 C 4.84375 -2.660156 4.828125 -2.59375 4.796875 -2.46875 C 4.773438 -2.351562 4.75 -2.226562 4.71875 -2.09375 C 4.6875 -1.96875 4.632812 -1.8125 4.5625 -1.625 C 4.5 -1.4375 4.429688 -1.253906 4.359375 -1.078125 C 4.285156 -0.910156 4.1875 -0.734375 4.0625 -0.546875 C 3.945312 -0.367188 3.820312 -0.21875 3.6875 -0.09375 C 3.5625 0.03125 3.410156 0.132812 3.234375 0.21875 C 3.054688 0.300781 2.867188 0.34375 2.671875 0.34375 C 2.128906 0.34375 1.863281 -0.128906 1.875 -1.078125 C 1.59375 -0.640625 1.226562 -0.429688 0.78125 -0.453125 C 0.519531 -0.460938 0.328125 -0.5625 0.203125 -0.75 C 0.078125 -0.945312 0.0078125 -1.191406 0 -1.484375 C -0.0078125 -1.773438 0 -2.0625 0.03125 -2.34375 C 0.0625 -2.632812 0.09375 -2.90625 0.125 -3.15625 C 0.164062 -3.40625 0.175781 -3.554688 0.15625 -3.609375 C 0.195312 -3.617188 0.242188 -3.628906 0.296875 -3.640625 C 0.347656 -3.648438 0.445312 -3.648438 0.59375 -3.640625 C 0.738281 -3.628906 0.863281 -3.601562 0.96875 -3.5625 C 1.070312 -3.519531 1.160156 -3.4375 1.234375 -3.3125 C 1.304688 -3.195312 1.328125 -3.046875 1.296875 -2.859375 C 1.148438 -1.828125 1.140625 -1.257812 1.265625 -1.15625 C 1.347656 -1.09375 1.476562 -1.15625 1.65625 -1.34375 C 1.832031 -1.519531 1.957031 -1.769531 2.03125 -2.09375 C 2.113281 -2.425781 2.148438 -2.710938 2.140625 -2.953125 L 2.125 -3.296875 C 2.144531 -3.304688 2.171875 -3.3125 2.203125 -3.3125 C 2.234375 -3.320312 2.296875 -3.328125 2.390625 -3.328125 C 2.492188 -3.335938 2.585938 -3.332031 2.671875 -3.3125 C 2.765625 -3.300781 2.863281 -3.273438 2.96875 -3.234375 C 3.082031 -3.191406 3.171875 -3.128906 3.234375 -3.046875 C 3.304688 -2.972656 3.363281 -2.863281 3.40625 -2.71875 C 3.457031 -2.582031 3.472656 -2.421875 3.453125 -2.234375 C 3.441406 -2.078125 3.421875 -1.863281 3.390625 -1.59375 C 3.328125 -0.914062 3.320312 -0.535156 3.375 -0.453125 C 3.4375 -0.359375 3.570312 -0.429688 3.78125 -0.671875 C 3.96875 -0.890625 4.125 -1.175781 4.25 -1.53125 C 4.382812 -1.882812 4.46875 -2.179688 4.5 -2.421875 Z M 4.5625 -2.78125 "/></g></g></g><g fill="#000000" fill-opacity="1"><g transform="translate(46.992932, 30.498709)"><g><path d="M 4.53125 -2.5 L 4.734375 -2.359375 C 4.460938 -1.628906 4.101562 -1.113281 3.65625 -0.8125 C 3.300781 -0.582031 2.90625 -0.484375 2.46875 -0.515625 C 2.257812 -0.523438 2.101562 -0.597656 2 -0.734375 C 1.894531 -0.867188 1.84375 -1.03125 1.84375 -1.21875 C 1.84375 -1.414062 1.851562 -1.628906 1.875 -1.859375 C 1.757812 -1.648438 1.570312 -1.46875 1.3125 -1.3125 C 1.0625 -1.15625 0.804688 -1.109375 0.546875 -1.171875 C 0.273438 -1.234375 0.101562 -1.378906 0.03125 -1.609375 C -0.03125 -1.835938 0 -2.078125 0.125 -2.328125 C 0.257812 -2.585938 0.445312 -2.785156 0.6875 -2.921875 C 1.113281 -3.148438 1.570312 -3.203125 2.0625 -3.078125 C 2.125 -3.515625 2.171875 -4.03125 2.203125 -4.625 C 2.234375 -5.226562 2.25 -5.695312 2.25 -6.03125 C 2.25 -6.363281 2.242188 -6.59375 2.234375 -6.71875 C 2.253906 -6.71875 2.28125 -6.71875 2.3125 -6.71875 C 2.351562 -6.726562 2.421875 -6.726562 2.515625 -6.71875 C 2.617188 -6.707031 2.71875 -6.6875 2.8125 -6.65625 C 2.90625 -6.632812 3.003906 -6.59375 3.109375 -6.53125 C 3.210938 -6.476562 3.300781 -6.410156 3.375 -6.328125 C 3.445312 -6.242188 3.5 -6.125 3.53125 -5.96875 C 3.570312 -5.820312 3.582031 -5.65625 3.5625 -5.46875 C 3.539062 -5.320312 3.503906 -5.0625 3.453125 -4.6875 C 3.234375 -3.164062 3.15625 -2.195312 3.21875 -1.78125 C 3.269531 -1.414062 3.40625 -1.304688 3.625 -1.453125 C 3.820312 -1.585938 3.992188 -1.738281 4.140625 -1.90625 C 4.296875 -2.082031 4.398438 -2.226562 4.453125 -2.34375 Z M 0.921875 -2.078125 C 0.898438 -1.867188 0.972656 -1.765625 1.140625 -1.765625 C 1.328125 -1.773438 1.523438 -1.914062 1.734375 -2.1875 C 1.835938 -2.320312 1.925781 -2.476562 2 -2.65625 C 1.3125 -2.675781 0.953125 -2.484375 0.921875 -2.078125 Z M 0.921875 -2.078125 "/></g></g></g><g fill="#000000" fill-opacity="1"><g transform="translate(51.182009, 30.498709)"><g><path d="M 3.71875 -2.578125 L 3.890625 -2.453125 C 3.421875 -1.578125 2.832031 -0.90625 2.125 -0.4375 C 1.519531 -0.0390625 1.003906 0.0859375 0.578125 -0.046875 C 0.148438 -0.179688 -0.0351562 -0.585938 0.015625 -1.265625 C 0.015625 -1.359375 0.0234375 -1.453125 0.046875 -1.546875 C 0.0976562 -1.835938 0.1875 -2.085938 0.3125 -2.296875 C 0.445312 -2.503906 0.59375 -2.660156 0.75 -2.765625 C 0.914062 -2.867188 1.085938 -2.941406 1.265625 -2.984375 C 1.453125 -3.035156 1.613281 -3.0625 1.75 -3.0625 C 1.894531 -3.0625 2.019531 -3.046875 2.125 -3.015625 C 2.238281 -2.972656 2.335938 -2.898438 2.421875 -2.796875 C 2.503906 -2.703125 2.550781 -2.578125 2.5625 -2.421875 C 2.570312 -2.265625 2.515625 -2.085938 2.390625 -1.890625 C 2.191406 -1.566406 1.820312 -1.414062 1.28125 -1.4375 C 1.21875 -0.875 1.34375 -0.613281 1.65625 -0.65625 C 1.988281 -0.707031 2.453125 -1.054688 3.046875 -1.703125 C 3.390625 -2.085938 3.613281 -2.378906 3.71875 -2.578125 Z M 1.96875 -2.546875 C 1.925781 -2.546875 1.890625 -2.546875 1.859375 -2.546875 C 1.835938 -2.546875 1.796875 -2.53125 1.734375 -2.5 C 1.679688 -2.46875 1.628906 -2.421875 1.578125 -2.359375 C 1.535156 -2.304688 1.488281 -2.21875 1.4375 -2.09375 C 1.382812 -1.96875 1.347656 -1.816406 1.328125 -1.640625 C 1.742188 -1.609375 2.023438 -1.742188 2.171875 -2.046875 C 2.191406 -2.097656 2.207031 -2.160156 2.21875 -2.234375 C 2.226562 -2.304688 2.210938 -2.375 2.171875 -2.4375 C 2.140625 -2.507812 2.070312 -2.546875 1.96875 -2.546875 Z M 1.96875 -2.546875 "/></g></g></g><g fill="#000000" fill-opacity="1"><g transform="translate(54.46557, 30.498709)"><g><path d="M 3.53125 -2.671875 L 3.703125 -2.59375 C 3.453125 -2.101562 3.28125 -1.769531 3.1875 -1.59375 C 3.101562 -1.4375 3.015625 -1.300781 2.921875 -1.1875 C 2.835938 -1.101562 2.769531 -1.039062 2.71875 -1 C 2.71875 -0.988281 2.707031 -0.976562 2.6875 -0.96875 C 2.675781 -0.96875 2.664062 -0.960938 2.65625 -0.953125 C 2.65625 -0.953125 2.644531 -0.945312 2.625 -0.9375 C 2.613281 -0.9375 2.601562 -0.929688 2.59375 -0.921875 C 2.59375 -0.921875 2.582031 -0.914062 2.5625 -0.90625 L 2.53125 -0.90625 L 2.515625 -0.890625 L 2.4375 -0.890625 C 2.394531 -0.890625 2.363281 -0.90625 2.34375 -0.9375 C 2.300781 -0.945312 2.269531 -0.972656 2.25 -1.015625 C 2.226562 -1.035156 2.207031 -1.097656 2.1875 -1.203125 C 2.175781 -1.285156 2.171875 -1.394531 2.171875 -1.53125 C 2.171875 -1.675781 2.179688 -1.882812 2.203125 -2.15625 C 2.210938 -2.289062 2.21875 -2.390625 2.21875 -2.453125 C 2.21875 -2.578125 2.21875 -2.660156 2.21875 -2.703125 C 2.207031 -2.722656 2.191406 -2.738281 2.171875 -2.75 C 2.160156 -2.757812 2.140625 -2.753906 2.109375 -2.734375 L 2.0625 -2.671875 C 2.019531 -2.617188 1.976562 -2.550781 1.9375 -2.46875 C 1.90625 -2.414062 1.867188 -2.34375 1.828125 -2.25 C 1.742188 -2.019531 1.691406 -1.867188 1.671875 -1.796875 C 1.597656 -1.585938 1.53125 -1.363281 1.46875 -1.125 L 1.390625 -0.84375 C 1.273438 -0.394531 1.03125 -0.164062 0.65625 -0.15625 C 0.414062 -0.15625 0.242188 -0.242188 0.140625 -0.421875 C 0.0351562 -0.609375 -0.0078125 -0.84375 0 -1.125 C 0.0195312 -1.414062 0.046875 -1.726562 0.078125 -2.0625 C 0.117188 -2.394531 0.160156 -2.703125 0.203125 -2.984375 C 0.242188 -3.273438 0.242188 -3.519531 0.203125 -3.71875 C 0.222656 -3.71875 0.25 -3.722656 0.28125 -3.734375 C 0.3125 -3.742188 0.367188 -3.75 0.453125 -3.75 C 0.546875 -3.757812 0.632812 -3.753906 0.71875 -3.734375 C 0.800781 -3.722656 0.890625 -3.691406 0.984375 -3.640625 C 1.085938 -3.585938 1.171875 -3.515625 1.234375 -3.421875 C 1.304688 -3.328125 1.359375 -3.191406 1.390625 -3.015625 C 1.429688 -2.847656 1.445312 -2.65625 1.4375 -2.4375 L 1.4375 -2.390625 C 1.726562 -2.898438 1.984375 -3.148438 2.203125 -3.140625 C 2.367188 -3.140625 2.460938 -3.015625 2.484375 -2.765625 C 2.503906 -2.515625 2.492188 -2.285156 2.453125 -2.078125 C 2.453125 -2.035156 2.441406 -1.972656 2.421875 -1.890625 L 2.421875 -1.84375 C 2.410156 -1.78125 2.398438 -1.675781 2.390625 -1.53125 C 2.390625 -1.394531 2.394531 -1.300781 2.40625 -1.25 C 2.414062 -1.207031 2.421875 -1.179688 2.421875 -1.171875 L 2.4375 -1.15625 L 2.515625 -1.15625 C 2.515625 -1.164062 2.519531 -1.171875 2.53125 -1.171875 C 2.539062 -1.171875 2.546875 -1.171875 2.546875 -1.171875 C 2.554688 -1.179688 2.566406 -1.1875 2.578125 -1.1875 L 2.59375 -1.203125 C 2.601562 -1.210938 2.609375 -1.21875 2.609375 -1.21875 C 2.628906 -1.226562 2.679688 -1.273438 2.765625 -1.359375 C 2.859375 -1.472656 2.941406 -1.597656 3.015625 -1.734375 Z M 3.53125 -2.671875 "/></g></g></g><g fill="#000000" fill-opacity="1"><g transform="translate(57.275214, 30.498709)"><g><path d="M 4.25 -2.734375 L 4.421875 -2.59375 C 4.410156 -2.550781 4.390625 -2.492188 4.359375 -2.421875 C 4.328125 -2.347656 4.257812 -2.203125 4.15625 -1.984375 C 4.0625 -1.773438 3.960938 -1.578125 3.859375 -1.390625 C 3.753906 -1.203125 3.617188 -0.992188 3.453125 -0.765625 C 3.285156 -0.535156 3.113281 -0.335938 2.9375 -0.171875 C 2.769531 -0.015625 2.570312 0.109375 2.34375 0.203125 C 2.113281 0.304688 1.890625 0.351562 1.671875 0.34375 C 1.535156 0.332031 1.414062 0.257812 1.3125 0.125 C 1.21875 0 1.144531 -0.1875 1.09375 -0.4375 C 1.050781 -0.6875 1.015625 -0.945312 0.984375 -1.21875 C 0.960938 -1.488281 0.953125 -1.816406 0.953125 -2.203125 C 0.960938 -2.585938 0.972656 -2.929688 0.984375 -3.234375 C 0.992188 -3.535156 1.015625 -3.882812 1.046875 -4.28125 C 1.003906 -4.28125 0.953125 -4.28125 0.890625 -4.28125 C 0.828125 -4.28125 0.785156 -4.273438 0.765625 -4.265625 C 0.640625 -4.265625 0.546875 -4.265625 0.484375 -4.265625 L -0.0625 -4.265625 L -0.078125 -4.515625 C -0.0664062 -4.515625 -0.0546875 -4.519531 -0.046875 -4.53125 C -0.0351562 -4.53125 0 -4.535156 0.0625 -4.546875 C 0.09375 -4.554688 0.128906 -4.5625 0.171875 -4.5625 C 0.210938 -4.570312 0.257812 -4.578125 0.3125 -4.578125 C 0.375 -4.585938 0.425781 -4.597656 0.46875 -4.609375 C 0.476562 -4.609375 0.515625 -4.609375 0.578125 -4.609375 C 0.640625 -4.617188 0.691406 -4.628906 0.734375 -4.640625 C 0.796875 -4.648438 0.894531 -4.660156 1.03125 -4.671875 C 1.039062 -4.679688 1.050781 -4.6875 1.0625 -4.6875 C 1.132812 -5.800781 1.144531 -6.441406 1.09375 -6.609375 C 1.125 -6.617188 1.15625 -6.625 1.1875 -6.625 C 1.21875 -6.632812 1.28125 -6.640625 1.375 -6.640625 C 1.476562 -6.640625 1.570312 -6.632812 1.65625 -6.625 C 1.75 -6.613281 1.847656 -6.585938 1.953125 -6.546875 C 2.054688 -6.503906 2.144531 -6.441406 2.21875 -6.359375 C 2.289062 -6.285156 2.347656 -6.175781 2.390625 -6.03125 C 2.429688 -5.894531 2.445312 -5.726562 2.4375 -5.53125 C 2.425781 -5.4375 2.410156 -5.191406 2.390625 -4.796875 C 2.410156 -4.796875 2.445312 -4.796875 2.5 -4.796875 C 2.5625 -4.796875 2.601562 -4.796875 2.625 -4.796875 C 2.6875 -4.804688 2.773438 -4.8125 2.890625 -4.8125 C 2.921875 -4.8125 2.957031 -4.8125 3 -4.8125 C 3.050781 -4.8125 3.085938 -4.8125 3.109375 -4.8125 L 3.453125 -4.8125 L 3.46875 -4.5625 C 3.425781 -4.550781 3.375 -4.535156 3.3125 -4.515625 C 3.269531 -4.503906 3.210938 -4.5 3.140625 -4.5 C 3.117188 -4.5 3.082031 -4.492188 3.03125 -4.484375 C 2.988281 -4.472656 2.953125 -4.46875 2.921875 -4.46875 C 2.890625 -4.46875 2.84375 -4.460938 2.78125 -4.453125 C 2.726562 -4.441406 2.6875 -4.429688 2.65625 -4.421875 C 2.625 -4.421875 2.578125 -4.414062 2.515625 -4.40625 C 2.453125 -4.40625 2.40625 -4.398438 2.375 -4.390625 C 2.351562 -3.941406 2.335938 -3.453125 2.328125 -2.921875 C 2.328125 -1.890625 2.332031 -1.3125 2.34375 -1.1875 C 2.382812 -0.71875 2.484375 -0.488281 2.640625 -0.5 C 2.710938 -0.5 2.796875 -0.539062 2.890625 -0.625 C 3.054688 -0.757812 3.25 -1 3.46875 -1.34375 C 3.695312 -1.695312 3.882812 -2.015625 4.03125 -2.296875 Z M 4.25 -2.734375 "/></g></g></g><g fill="#000000" fill-opacity="1"><g transform="translate(61.168097, 30.498709)"><g><path d="M 3.59375 -2.34375 L 3.640625 -2.140625 C 3.597656 -2.148438 3.546875 -2.171875 3.484375 -2.203125 C 3.421875 -2.234375 3.300781 -2.28125 3.125 -2.34375 C 2.957031 -2.40625 2.796875 -2.445312 2.640625 -2.46875 C 2.492188 -2.5 2.332031 -2.503906 2.15625 -2.484375 C 1.976562 -2.460938 1.832031 -2.398438 1.71875 -2.296875 C 1.78125 -2.203125 1.867188 -2.070312 1.984375 -1.90625 C 2.097656 -1.738281 2.191406 -1.601562 2.265625 -1.5 C 2.335938 -1.394531 2.421875 -1.265625 2.515625 -1.109375 C 2.617188 -0.953125 2.691406 -0.820312 2.734375 -0.71875 C 2.785156 -0.613281 2.835938 -0.492188 2.890625 -0.359375 C 2.953125 -0.222656 2.984375 -0.101562 2.984375 0 C 2.984375 0.09375 2.972656 0.1875 2.953125 0.28125 C 2.941406 0.382812 2.898438 0.476562 2.828125 0.5625 C 2.753906 0.644531 2.660156 0.722656 2.546875 0.796875 C 2.148438 0.984375 1.8125 1.046875 1.53125 0.984375 C 1.507812 0.984375 1.492188 0.984375 1.484375 0.984375 C 1.410156 0.972656 1.34375 0.953125 1.28125 0.921875 C 1.195312 0.898438 1.097656 0.851562 0.984375 0.78125 C 0.847656 0.695312 0.738281 0.597656 0.65625 0.484375 C 0.550781 0.347656 0.472656 0.195312 0.421875 0.03125 C 0.421875 0.0195312 0.421875 0.0078125 0.421875 0 C 0.421875 -0.0195312 0.421875 -0.03125 0.421875 -0.03125 L 0.40625 -0.046875 L 0.40625 -0.0625 L 0.390625 -0.109375 L 0.390625 -0.15625 C 0.378906 -0.175781 0.375 -0.203125 0.375 -0.234375 C 0.363281 -0.316406 0.359375 -0.40625 0.359375 -0.5 C 0.359375 -0.695312 0.378906 -0.882812 0.421875 -1.0625 C 0.472656 -1.238281 0.546875 -1.414062 0.640625 -1.59375 C 0.640625 -1.601562 0.644531 -1.609375 0.65625 -1.609375 L 0.65625 -1.625 C 0.570312 -1.75 0.476562 -1.882812 0.375 -2.03125 C 0.21875 -2.28125 0.109375 -2.507812 0.046875 -2.71875 C -0.00390625 -2.9375 -0.015625 -3.113281 0.015625 -3.25 C 0.046875 -3.394531 0.0976562 -3.519531 0.171875 -3.625 C 0.242188 -3.738281 0.332031 -3.828125 0.4375 -3.890625 C 0.550781 -3.960938 0.65625 -4.019531 0.75 -4.0625 C 0.84375 -4.101562 0.921875 -4.132812 0.984375 -4.15625 L 1.09375 -4.171875 C 0.945312 -3.816406 1.097656 -3.28125 1.546875 -2.5625 C 1.710938 -2.65625 1.898438 -2.710938 2.109375 -2.734375 C 2.316406 -2.753906 2.503906 -2.742188 2.671875 -2.703125 C 2.835938 -2.671875 2.992188 -2.625 3.140625 -2.5625 C 3.285156 -2.507812 3.394531 -2.457031 3.46875 -2.40625 Z M 0.984375 0.21875 C 1.035156 0.28125 1.113281 0.34375 1.21875 0.40625 L 1.265625 0.4375 C 1.460938 0.5 1.582031 0.457031 1.625 0.3125 C 1.664062 0.15625 1.65625 -0.0078125 1.59375 -0.1875 C 1.539062 -0.363281 1.46875 -0.519531 1.375 -0.65625 C 1.289062 -0.789062 1.15625 -0.984375 0.96875 -1.234375 C 0.9375 -1.265625 0.914062 -1.285156 0.90625 -1.296875 C 0.863281 -1.203125 0.828125 -1.09375 0.796875 -0.96875 C 0.765625 -0.8125 0.75 -0.660156 0.75 -0.515625 C 0.757812 -0.460938 0.769531 -0.382812 0.78125 -0.28125 C 0.78125 -0.269531 0.78125 -0.25 0.78125 -0.21875 C 0.789062 -0.1875 0.800781 -0.160156 0.8125 -0.140625 C 0.820312 -0.117188 0.828125 -0.0976562 0.828125 -0.078125 C 0.859375 0.0234375 0.910156 0.125 0.984375 0.21875 Z M 0.984375 0.21875 "/></g></g></g><g fill="#000000" fill-opacity="1"><g transform="translate(26.944277, 36.019168)"><g><path d="M 0.53125 -1.53125 L 0.53125 -1.078125 L 1.09375 -1.078125 C 1.132812 -1.078125 1.171875 -1.0625 1.203125 -1.03125 C 1.234375 -1 1.25 -0.960938 1.25 -0.921875 C 1.25 -0.878906 1.234375 -0.84375 1.203125 -0.8125 C 1.171875 -0.78125 1.132812 -0.765625 1.09375 -0.765625 L 0.53125 -0.765625 L 0.53125 -0.15625 C 0.53125 -0.113281 0.507812 -0.078125 0.46875 -0.046875 C 0.4375 -0.015625 0.398438 0 0.359375 0 C 0.304688 0 0.265625 -0.015625 0.234375 -0.046875 C 0.210938 -0.078125 0.203125 -0.113281 0.203125 -0.15625 L 0.203125 -1.671875 C 0.203125 -1.722656 0.210938 -1.765625 0.234375 -1.796875 C 0.265625 -1.828125 0.304688 -1.84375 0.359375 -1.84375 L 1.203125 -1.84375 C 1.253906 -1.84375 1.296875 -1.828125 1.328125 -1.796875 C 1.359375 -1.765625 1.375 -1.726562 1.375 -1.6875 C 1.375 -1.644531 1.359375 -1.609375 1.328125 -1.578125 C 1.296875 -1.546875 1.253906 -1.53125 1.203125 -1.53125 Z M 0.53125 -1.53125 "/></g></g></g><g fill="#000000" fill-opacity="1"><g transform="translate(28.485482, 36.019168)"><g><path d="M 1.515625 -0.703125 C 1.515625 -0.554688 1.484375 -0.425781 1.421875 -0.3125 C 1.359375 -0.207031 1.269531 -0.125 1.15625 -0.0625 C 1.050781 0 0.9375 0.03125 0.8125 0.03125 C 0.675781 0.03125 0.550781 0 0.4375 -0.0625 C 0.332031 -0.125 0.25 -0.207031 0.1875 -0.3125 C 0.125 -0.425781 0.09375 -0.554688 0.09375 -0.703125 C 0.09375 -0.835938 0.125 -0.960938 0.1875 -1.078125 C 0.25 -1.191406 0.332031 -1.28125 0.4375 -1.34375 C 0.550781 -1.40625 0.675781 -1.4375 0.8125 -1.4375 C 0.9375 -1.4375 1.050781 -1.40625 1.15625 -1.34375 C 1.269531 -1.28125 1.359375 -1.191406 1.421875 -1.078125 C 1.484375 -0.960938 1.515625 -0.835938 1.515625 -0.703125 Z M 1.203125 -0.703125 C 1.203125 -0.785156 1.179688 -0.859375 1.140625 -0.921875 C 1.109375 -0.992188 1.0625 -1.046875 1 -1.078125 C 0.945312 -1.117188 0.882812 -1.140625 0.8125 -1.140625 C 0.738281 -1.140625 0.671875 -1.117188 0.609375 -1.078125 C 0.546875 -1.046875 0.492188 -0.992188 0.453125 -0.921875 C 0.421875 -0.859375 0.40625 -0.785156 0.40625 -0.703125 C 0.40625 -0.617188 0.421875 -0.539062 0.453125 -0.46875 C 0.492188 -0.40625 0.546875 -0.351562 0.609375 -0.3125 C 0.671875 -0.28125 0.738281 -0.265625 0.8125 -0.265625 C 0.882812 -0.265625 0.945312 -0.28125 1 -0.3125 C 1.0625 -0.351562 1.109375 -0.40625 1.140625 -0.46875 C 1.179688 -0.539062 1.203125 -0.617188 1.203125 -0.703125 Z M 1.203125 -0.703125 "/></g></g></g><g fill="#000000" fill-opacity="1"><g transform="translate(30.163214, 36.019168)"><g><path d="M 0.90625 -1.4375 C 0.957031 -1.4375 1 -1.421875 1.03125 -1.390625 C 1.070312 -1.359375 1.09375 -1.320312 1.09375 -1.28125 C 1.09375 -1.226562 1.078125 -1.1875 1.046875 -1.15625 C 1.015625 -1.132812 0.976562 -1.125 0.9375 -1.125 C 0.914062 -1.125 0.890625 -1.128906 0.859375 -1.140625 C 0.847656 -1.140625 0.832031 -1.140625 0.8125 -1.140625 C 0.800781 -1.148438 0.785156 -1.15625 0.765625 -1.15625 C 0.710938 -1.15625 0.664062 -1.140625 0.625 -1.109375 C 0.582031 -1.085938 0.546875 -1.046875 0.515625 -0.984375 C 0.492188 -0.929688 0.484375 -0.863281 0.484375 -0.78125 L 0.484375 -0.15625 C 0.484375 -0.113281 0.46875 -0.078125 0.4375 -0.046875 C 0.40625 -0.015625 0.367188 0 0.328125 0 C 0.285156 0 0.25 -0.015625 0.21875 -0.046875 C 0.1875 -0.078125 0.171875 -0.113281 0.171875 -0.15625 L 0.171875 -1.25 C 0.171875 -1.289062 0.1875 -1.328125 0.21875 -1.359375 C 0.25 -1.390625 0.285156 -1.40625 0.328125 -1.40625 C 0.367188 -1.40625 0.40625 -1.390625 0.4375 -1.359375 C 0.46875 -1.328125 0.484375 -1.289062 0.484375 -1.25 L 0.484375 -1.203125 C 0.523438 -1.273438 0.582031 -1.332031 0.65625 -1.375 C 0.726562 -1.414062 0.8125 -1.4375 0.90625 -1.4375 Z M 0.90625 -1.4375 "/></g></g></g><g fill="#000000" fill-opacity="1"><g transform="translate(31.368354, 36.019168)"><g/></g></g><g fill="#000000" fill-opacity="1"><g transform="translate(32.169166, 36.019168)"><g><path d="M 1.484375 -1.75 C 1.535156 -1.71875 1.5625 -1.671875 1.5625 -1.609375 C 1.5625 -1.578125 1.550781 -1.539062 1.53125 -1.5 C 1.5 -1.46875 1.460938 -1.453125 1.421875 -1.453125 C 1.390625 -1.453125 1.359375 -1.457031 1.328125 -1.46875 C 1.242188 -1.507812 1.148438 -1.53125 1.046875 -1.53125 C 0.921875 -1.53125 0.8125 -1.503906 0.71875 -1.453125 C 0.632812 -1.398438 0.566406 -1.328125 0.515625 -1.234375 C 0.472656 -1.140625 0.453125 -1.035156 0.453125 -0.921875 C 0.453125 -0.710938 0.503906 -0.550781 0.609375 -0.4375 C 0.722656 -0.332031 0.867188 -0.28125 1.046875 -0.28125 C 1.148438 -0.28125 1.242188 -0.300781 1.328125 -0.34375 C 1.359375 -0.363281 1.382812 -0.375 1.40625 -0.375 C 1.457031 -0.375 1.5 -0.351562 1.53125 -0.3125 C 1.550781 -0.28125 1.5625 -0.242188 1.5625 -0.203125 C 1.5625 -0.171875 1.554688 -0.144531 1.546875 -0.125 C 1.535156 -0.101562 1.515625 -0.0859375 1.484375 -0.078125 C 1.347656 -0.00390625 1.203125 0.03125 1.046875 0.03125 C 0.878906 0.03125 0.722656 -0.00390625 0.578125 -0.078125 C 0.429688 -0.148438 0.316406 -0.253906 0.234375 -0.390625 C 0.148438 -0.535156 0.109375 -0.710938 0.109375 -0.921875 C 0.109375 -1.097656 0.144531 -1.253906 0.21875 -1.390625 C 0.300781 -1.535156 0.414062 -1.644531 0.5625 -1.71875 C 0.707031 -1.800781 0.867188 -1.84375 1.046875 -1.84375 C 1.203125 -1.84375 1.347656 -1.8125 1.484375 -1.75 Z M 1.484375 -1.75 "/></g></g></g><g fill="#000000" fill-opacity="1"><g transform="translate(33.88103, 36.019168)"><g><path d="M 0.78125 0.03125 C 0.65625 0.03125 0.539062 0.015625 0.4375 -0.015625 C 0.34375 -0.046875 0.253906 -0.101562 0.171875 -0.1875 C 0.128906 -0.226562 0.109375 -0.269531 0.109375 -0.3125 C 0.109375 -0.351562 0.117188 -0.390625 0.140625 -0.421875 C 0.171875 -0.453125 0.207031 -0.46875 0.25 -0.46875 C 0.289062 -0.46875 0.320312 -0.457031 0.34375 -0.4375 C 0.414062 -0.382812 0.484375 -0.34375 0.546875 -0.3125 C 0.617188 -0.289062 0.695312 -0.28125 0.78125 -0.28125 C 0.882812 -0.28125 0.96875 -0.300781 1.03125 -0.34375 C 1.101562 -0.382812 1.140625 -0.4375 1.140625 -0.5 C 1.140625 -0.582031 1.101562 -0.644531 1.03125 -0.6875 C 0.96875 -0.726562 0.859375 -0.765625 0.703125 -0.796875 C 0.328125 -0.847656 0.140625 -1.023438 0.140625 -1.328125 C 0.140625 -1.429688 0.164062 -1.523438 0.21875 -1.609375 C 0.28125 -1.691406 0.359375 -1.753906 0.453125 -1.796875 C 0.554688 -1.835938 0.671875 -1.859375 0.796875 -1.859375 C 0.898438 -1.859375 1 -1.84375 1.09375 -1.8125 C 1.195312 -1.78125 1.28125 -1.738281 1.34375 -1.6875 C 1.394531 -1.644531 1.421875 -1.597656 1.421875 -1.546875 C 1.421875 -1.503906 1.40625 -1.46875 1.375 -1.4375 C 1.34375 -1.40625 1.304688 -1.390625 1.265625 -1.390625 C 1.242188 -1.390625 1.222656 -1.398438 1.203125 -1.421875 C 1.148438 -1.453125 1.082031 -1.484375 1 -1.515625 C 0.925781 -1.546875 0.859375 -1.5625 0.796875 -1.5625 C 0.679688 -1.5625 0.59375 -1.539062 0.53125 -1.5 C 0.46875 -1.457031 0.4375 -1.40625 0.4375 -1.34375 C 0.4375 -1.257812 0.46875 -1.195312 0.53125 -1.15625 C 0.59375 -1.125 0.691406 -1.097656 0.828125 -1.078125 C 0.984375 -1.046875 1.101562 -1.007812 1.1875 -0.96875 C 1.28125 -0.925781 1.347656 -0.867188 1.390625 -0.796875 C 1.441406 -0.734375 1.46875 -0.640625 1.46875 -0.515625 C 1.46875 -0.410156 1.4375 -0.316406 1.375 -0.234375 C 1.3125 -0.148438 1.226562 -0.0820312 1.125 -0.03125 C 1.019531 0.0078125 0.90625 0.03125 0.78125 0.03125 Z M 0.78125 0.03125 "/></g></g></g><g fill="#000000" fill-opacity="1"><g transform="translate(35.514129, 36.019168)"><g><path d="M 0.53125 -0.15625 C 0.53125 -0.113281 0.507812 -0.078125 0.46875 -0.046875 C 0.4375 -0.015625 0.398438 0 0.359375 0 C 0.304688 0 0.265625 -0.015625 0.234375 -0.046875 C 0.210938 -0.078125 0.203125 -0.113281 0.203125 -0.15625 L 0.203125 -1.671875 C 0.203125 -1.722656 0.21875 -1.765625 0.25 -1.796875 C 0.28125 -1.828125 0.316406 -1.84375 0.359375 -1.84375 C 0.410156 -1.84375 0.453125 -1.828125 0.484375 -1.796875 C 0.515625 -1.765625 0.53125 -1.722656 0.53125 -1.671875 Z M 0.53125 -0.15625 "/></g></g></g><g fill="#000000" fill-opacity="1"><g transform="translate(36.301813, 36.019168)"><g><path d="M 1.40625 -1.84375 C 1.445312 -1.84375 1.484375 -1.828125 1.515625 -1.796875 C 1.546875 -1.765625 1.5625 -1.726562 1.5625 -1.6875 C 1.5625 -1.632812 1.546875 -1.59375 1.515625 -1.5625 C 1.484375 -1.539062 1.445312 -1.53125 1.40625 -1.53125 L 1 -1.53125 L 1 -0.15625 C 1 -0.113281 0.976562 -0.078125 0.9375 -0.046875 C 0.90625 -0.015625 0.863281 0 0.8125 0 C 0.769531 0 0.734375 -0.015625 0.703125 -0.046875 C 0.671875 -0.078125 0.65625 -0.113281 0.65625 -0.15625 L 0.65625 -1.53125 L 0.234375 -1.53125 C 0.191406 -1.53125 0.15625 -1.546875 0.125 -1.578125 C 0.09375 -1.609375 0.078125 -1.644531 0.078125 -1.6875 C 0.078125 -1.726562 0.09375 -1.765625 0.125 -1.796875 C 0.15625 -1.828125 0.191406 -1.84375 0.234375 -1.84375 Z M 1.40625 -1.84375 "/></g></g></g><g fill="#000000" fill-opacity="1"><g transform="translate(38.011051, 36.019168)"><g/></g></g><g fill="#000000" fill-opacity="1"><g transform="translate(38.811863, 36.019168)"><g><path d="M 0.5625 -0.015625 C 0.5625 0.0234375 0.546875 0.0703125 0.515625 0.125 C 0.492188 0.1875 0.457031 0.238281 0.40625 0.28125 C 0.363281 0.332031 0.316406 0.359375 0.265625 0.359375 C 0.222656 0.359375 0.191406 0.347656 0.171875 0.328125 C 0.148438 0.316406 0.140625 0.289062 0.140625 0.25 C 0.140625 0.226562 0.144531 0.207031 0.15625 0.1875 C 0.164062 0.175781 0.179688 0.164062 0.203125 0.15625 C 0.222656 0.15625 0.234375 0.15625 0.234375 0.15625 C 0.285156 0.132812 0.3125 0.0976562 0.3125 0.046875 C 0.3125 0.0351562 0.300781 0.0195312 0.28125 0 C 0.257812 -0.0078125 0.238281 -0.015625 0.21875 -0.015625 C 0.1875 -0.015625 0.160156 -0.0078125 0.140625 0 C 0.117188 -0.0078125 0.101562 -0.0195312 0.09375 -0.03125 C 0.0820312 -0.0507812 0.078125 -0.0703125 0.078125 -0.09375 C 0.078125 -0.132812 0.0859375 -0.171875 0.109375 -0.203125 C 0.140625 -0.234375 0.171875 -0.253906 0.203125 -0.265625 C 0.242188 -0.285156 0.285156 -0.296875 0.328125 -0.296875 C 0.398438 -0.296875 0.457031 -0.269531 0.5 -0.21875 C 0.539062 -0.175781 0.5625 -0.109375 0.5625 -0.015625 Z M 0.5625 -0.015625 "/></g></g></g><g fill="#000000" fill-opacity="1"><g transform="translate(39.599547, 36.019168)"><g/></g></g><g fill="#000000" fill-opacity="1"><g transform="translate(40.400358, 36.019168)"><g><path d="M 1.296875 -1.015625 C 1.390625 -0.984375 1.460938 -0.925781 1.515625 -0.84375 C 1.578125 -0.769531 1.609375 -0.675781 1.609375 -0.5625 C 1.609375 -0.351562 1.546875 -0.207031 1.421875 -0.125 C 1.304688 -0.0390625 1.171875 0 1.015625 0 L 0.359375 0 C 0.304688 0 0.265625 -0.015625 0.234375 -0.046875 C 0.210938 -0.078125 0.203125 -0.113281 0.203125 -0.15625 L 0.203125 -1.671875 C 0.203125 -1.722656 0.210938 -1.765625 0.234375 -1.796875 C 0.265625 -1.828125 0.304688 -1.84375 0.359375 -1.84375 L 1.015625 -1.84375 C 1.347656 -1.84375 1.515625 -1.6875 1.515625 -1.375 C 1.515625 -1.289062 1.492188 -1.21875 1.453125 -1.15625 C 1.421875 -1.101562 1.367188 -1.054688 1.296875 -1.015625 Z M 1.171875 -1.3125 C 1.171875 -1.382812 1.148438 -1.4375 1.109375 -1.46875 C 1.078125 -1.507812 1.03125 -1.53125 0.96875 -1.53125 L 0.53125 -1.53125 L 0.53125 -1.125 L 0.984375 -1.125 C 1.035156 -1.125 1.078125 -1.140625 1.109375 -1.171875 C 1.148438 -1.203125 1.171875 -1.25 1.171875 -1.3125 Z M 1.015625 -0.296875 C 1.097656 -0.296875 1.160156 -0.316406 1.203125 -0.359375 C 1.242188 -0.410156 1.265625 -0.476562 1.265625 -0.5625 C 1.265625 -0.664062 1.238281 -0.734375 1.1875 -0.765625 C 1.132812 -0.796875 1.070312 -0.8125 1 -0.8125 L 0.53125 -0.8125 L 0.53125 -0.296875 Z M 1.015625 -0.296875 "/></g></g></g><g fill="#000000" fill-opacity="1"><g transform="translate(42.185736, 36.019168)"><g><path d="M 1.21875 -1.40625 C 1.257812 -1.40625 1.296875 -1.390625 1.328125 -1.359375 C 1.359375 -1.328125 1.375 -1.289062 1.375 -1.25 L 1.375 -0.125 C 1.375 0.101562 1.3125 0.269531 1.1875 0.375 C 1.0625 0.476562 0.898438 0.53125 0.703125 0.53125 C 0.640625 0.53125 0.578125 0.523438 0.515625 0.515625 C 0.453125 0.503906 0.398438 0.488281 0.359375 0.46875 C 0.273438 0.4375 0.234375 0.382812 0.234375 0.3125 C 0.234375 0.300781 0.234375 0.289062 0.234375 0.28125 C 0.242188 0.238281 0.257812 0.207031 0.28125 0.1875 C 0.3125 0.164062 0.34375 0.15625 0.375 0.15625 C 0.394531 0.15625 0.410156 0.160156 0.421875 0.171875 C 0.441406 0.171875 0.460938 0.175781 0.484375 0.1875 C 0.515625 0.207031 0.546875 0.21875 0.578125 0.21875 C 0.617188 0.226562 0.660156 0.234375 0.703125 0.234375 C 0.816406 0.234375 0.90625 0.207031 0.96875 0.15625 C 1.03125 0.101562 1.0625 0.0078125 1.0625 -0.125 L 1.0625 -0.140625 C 0.96875 -0.0234375 0.820312 0.03125 0.625 0.03125 C 0.539062 0.03125 0.460938 0.0078125 0.390625 -0.03125 C 0.316406 -0.0820312 0.257812 -0.144531 0.21875 -0.21875 C 0.1875 -0.289062 0.171875 -0.378906 0.171875 -0.484375 L 0.171875 -1.25 C 0.171875 -1.289062 0.1875 -1.328125 0.21875 -1.359375 C 0.25 -1.390625 0.285156 -1.40625 0.328125 -1.40625 C 0.367188 -1.40625 0.40625 -1.390625 0.4375 -1.359375 C 0.46875 -1.328125 0.484375 -1.289062 0.484375 -1.25 L 0.484375 -0.578125 C 0.484375 -0.460938 0.503906 -0.378906 0.546875 -0.328125 C 0.597656 -0.285156 0.671875 -0.265625 0.765625 -0.265625 C 0.859375 -0.265625 0.929688 -0.289062 0.984375 -0.34375 C 1.035156 -0.394531 1.0625 -0.472656 1.0625 -0.578125 L 1.0625 -1.25 C 1.0625 -1.289062 1.070312 -1.328125 1.09375 -1.359375 C 1.125 -1.390625 1.164062 -1.40625 1.21875 -1.40625 Z M 1.21875 -1.40625 "/></g></g></g><g fill="#000000" fill-opacity="1"><g transform="translate(43.79258, 36.019168)"><g/></g></g><g fill="#000000" fill-opacity="1"><g transform="translate(44.593391, 36.019168)"><g><path d="M 1.484375 -1.75 C 1.535156 -1.71875 1.5625 -1.671875 1.5625 -1.609375 C 1.5625 -1.578125 1.550781 -1.539062 1.53125 -1.5 C 1.5 -1.46875 1.460938 -1.453125 1.421875 -1.453125 C 1.390625 -1.453125 1.359375 -1.457031 1.328125 -1.46875 C 1.242188 -1.507812 1.148438 -1.53125 1.046875 -1.53125 C 0.921875 -1.53125 0.8125 -1.503906 0.71875 -1.453125 C 0.632812 -1.398438 0.566406 -1.328125 0.515625 -1.234375 C 0.472656 -1.140625 0.453125 -1.035156 0.453125 -0.921875 C 0.453125 -0.710938 0.503906 -0.550781 0.609375 -0.4375 C 0.722656 -0.332031 0.867188 -0.28125 1.046875 -0.28125 C 1.148438 -0.28125 1.242188 -0.300781 1.328125 -0.34375 C 1.359375 -0.363281 1.382812 -0.375 1.40625 -0.375 C 1.457031 -0.375 1.5 -0.351562 1.53125 -0.3125 C 1.550781 -0.28125 1.5625 -0.242188 1.5625 -0.203125 C 1.5625 -0.171875 1.554688 -0.144531 1.546875 -0.125 C 1.535156 -0.101562 1.515625 -0.0859375 1.484375 -0.078125 C 1.347656 -0.00390625 1.203125 0.03125 1.046875 0.03125 C 0.878906 0.03125 0.722656 -0.00390625 0.578125 -0.078125 C 0.429688 -0.148438 0.316406 -0.253906 0.234375 -0.390625 C 0.148438 -0.535156 0.109375 -0.710938 0.109375 -0.921875 C 0.109375 -1.097656 0.144531 -1.253906 0.21875 -1.390625 C 0.300781 -1.535156 0.414062 -1.644531 0.5625 -1.71875 C 0.707031 -1.800781 0.867188 -1.84375 1.046875 -1.84375 C 1.203125 -1.84375 1.347656 -1.8125 1.484375 -1.75 Z M 1.484375 -1.75 "/></g></g></g><g fill="#000000" fill-opacity="1"><g transform="translate(46.305256, 36.019168)"><g><path d="M 0.78125 0.03125 C 0.65625 0.03125 0.539062 0.015625 0.4375 -0.015625 C 0.34375 -0.046875 0.253906 -0.101562 0.171875 -0.1875 C 0.128906 -0.226562 0.109375 -0.269531 0.109375 -0.3125 C 0.109375 -0.351562 0.117188 -0.390625 0.140625 -0.421875 C 0.171875 -0.453125 0.207031 -0.46875 0.25 -0.46875 C 0.289062 -0.46875 0.320312 -0.457031 0.34375 -0.4375 C 0.414062 -0.382812 0.484375 -0.34375 0.546875 -0.3125 C 0.617188 -0.289062 0.695312 -0.28125 0.78125 -0.28125 C 0.882812 -0.28125 0.96875 -0.300781 1.03125 -0.34375 C 1.101562 -0.382812 1.140625 -0.4375 1.140625 -0.5 C 1.140625 -0.582031 1.101562 -0.644531 1.03125 -0.6875 C 0.96875 -0.726562 0.859375 -0.765625 0.703125 -0.796875 C 0.328125 -0.847656 0.140625 -1.023438 0.140625 -1.328125 C 0.140625 -1.429688 0.164062 -1.523438 0.21875 -1.609375 C 0.28125 -1.691406 0.359375 -1.753906 0.453125 -1.796875 C 0.554688 -1.835938 0.671875 -1.859375 0.796875 -1.859375 C 0.898438 -1.859375 1 -1.84375 1.09375 -1.8125 C 1.195312 -1.78125 1.28125 -1.738281 1.34375 -1.6875 C 1.394531 -1.644531 1.421875 -1.597656 1.421875 -1.546875 C 1.421875 -1.503906 1.40625 -1.46875 1.375 -1.4375 C 1.34375 -1.40625 1.304688 -1.390625 1.265625 -1.390625 C 1.242188 -1.390625 1.222656 -1.398438 1.203125 -1.421875 C 1.148438 -1.453125 1.082031 -1.484375 1 -1.515625 C 0.925781 -1.546875 0.859375 -1.5625 0.796875 -1.5625 C 0.679688 -1.5625 0.59375 -1.539062 0.53125 -1.5 C 0.46875 -1.457031 0.4375 -1.40625 0.4375 -1.34375 C 0.4375 -1.257812 0.46875 -1.195312 0.53125 -1.15625 C 0.59375 -1.125 0.691406 -1.097656 0.828125 -1.078125 C 0.984375 -1.046875 1.101562 -1.007812 1.1875 -0.96875 C 1.28125 -0.925781 1.347656 -0.867188 1.390625 -0.796875 C 1.441406 -0.734375 1.46875 -0.640625 1.46875 -0.515625 C 1.46875 -0.410156 1.4375 -0.316406 1.375 -0.234375 C 1.3125 -0.148438 1.226562 -0.0820312 1.125 -0.03125 C 1.019531 0.0078125 0.90625 0.03125 0.78125 0.03125 Z M 0.78125 0.03125 "/></g></g></g><g fill="#000000" fill-opacity="1"><g transform="translate(47.938355, 36.019168)"><g><path d="M 0.53125 -0.15625 C 0.53125 -0.113281 0.507812 -0.078125 0.46875 -0.046875 C 0.4375 -0.015625 0.398438 0 0.359375 0 C 0.304688 0 0.265625 -0.015625 0.234375 -0.046875 C 0.210938 -0.078125 0.203125 -0.113281 0.203125 -0.15625 L 0.203125 -1.671875 C 0.203125 -1.722656 0.21875 -1.765625 0.25 -1.796875 C 0.28125 -1.828125 0.316406 -1.84375 0.359375 -1.84375 C 0.410156 -1.84375 0.453125 -1.828125 0.484375 -1.796875 C 0.515625 -1.765625 0.53125 -1.722656 0.53125 -1.671875 Z M 0.53125 -0.15625 "/></g></g></g><g fill="#000000" fill-opacity="1"><g transform="translate(48.726039, 36.019168)"><g><path d="M 1.40625 -1.84375 C 1.445312 -1.84375 1.484375 -1.828125 1.515625 -1.796875 C 1.546875 -1.765625 1.5625 -1.726562 1.5625 -1.6875 C 1.5625 -1.632812 1.546875 -1.59375 1.515625 -1.5625 C 1.484375 -1.539062 1.445312 -1.53125 1.40625 -1.53125 L 1 -1.53125 L 1 -0.15625 C 1 -0.113281 0.976562 -0.078125 0.9375 -0.046875 C 0.90625 -0.015625 0.863281 0 0.8125 0 C 0.769531 0 0.734375 -0.015625 0.703125 -0.046875 C 0.671875 -0.078125 0.65625 -0.113281 0.65625 -0.15625 L 0.65625 -1.53125 L 0.234375 -1.53125 C 0.191406 -1.53125 0.15625 -1.546875 0.125 -1.578125 C 0.09375 -1.609375 0.078125 -1.644531 0.078125 -1.6875 C 0.078125 -1.726562 0.09375 -1.765625 0.125 -1.796875 C 0.15625 -1.828125 0.191406 -1.84375 0.234375 -1.84375 Z M 1.40625 -1.84375 "/></g></g></g><g fill="#000000" fill-opacity="1"><g transform="translate(50.436007, 36.019168)"><g/></g></g></svg>